<svg xmlns="http://www.w3.org/2000/svg" viewBox="0 0 256 256" width="256" height="256" role="img" aria-label="kmap">
  <defs>
    <clipPath id="kmap-icon-clip"><rect width="256" height="256" rx="44"/></clipPath>
  </defs>
  <rect width="256" height="256" rx="44" fill="#0D1017"/>
  <g clip-path="url(#kmap-icon-clip)">
    <g transform="translate(-11.2,-16.8) scale(1.6)">
      <g fill="none" stroke="#7C839A" stroke-opacity="0.35" stroke-linejoin="round">
        <path d="M108.13,116C108.55,117.5 109.03,119.41 108.01,120.79C106.98,122.16 104.26,123.4 102,124.25C99.74,125.1 96.96,125.4 94.46,125.91C91.96,126.42 89.61,127.15 87,127.31C84.39,127.47 81.34,127.37 78.82,126.87C76.29,126.37 73.88,125.36 71.87,124.32C69.85,123.28 67.67,122.01 66.72,120.62C65.76,119.23 65.72,117.45 66.13,116C66.55,114.55 68.18,113.29 69.2,111.95C70.23,110.6 70.77,109.14 72.3,107.91C73.83,106.68 75.94,105.18 78.39,104.57C80.84,103.95 84.25,104.05 87,104.21C89.75,104.37 92.46,104.9 94.89,105.53C97.32,106.16 99.79,106.95 101.57,107.99C103.34,109.03 104.43,110.45 105.52,111.78C106.62,113.12 107.72,114.5 108.13,116Z" stroke-width="3"/>
        <path d="M128.18,116C129.08,118.92 130.07,122.67 128.09,125.36C126.11,128.05 120.72,130.43 116.32,132.13C111.92,133.82 106.59,134.53 101.7,135.52C96.81,136.51 92.08,137.85 87,138.09C81.92,138.32 76.16,137.9 71.24,136.93C66.32,135.95 61.54,134.19 57.5,132.23C53.45,130.26 48.86,127.82 46.97,125.12C45.09,122.41 45.29,118.84 46.18,116C47.08,113.16 50.31,110.73 52.33,108.1C54.36,105.47 55.34,102.61 58.34,100.24C61.34,97.86 65.54,95.06 70.32,93.85C75.1,92.64 81.62,92.75 87,92.99C92.38,93.22 97.87,94.04 102.62,95.26C107.37,96.48 112.13,98.24 115.48,100.34C118.83,102.44 120.61,105.25 122.73,107.86C124.85,110.47 127.29,113.08 128.18,116Z" stroke-width="4"/>
        <path d="M149.19,116C150.62,120.39 152.1,126.09 149.13,130.15C146.16,134.22 138,137.81 131.38,140.41C124.76,143.01 116.82,144.27 109.42,145.77C102.02,147.27 94.66,149.15 87,149.4C79.34,149.66 70.86,148.77 63.44,147.29C56.01,145.81 48.67,143.41 42.43,140.51C36.19,137.61 28.89,133.98 26.01,129.89C23.14,125.81 23.76,120.31 25.19,116C26.62,111.69 31.48,108.02 34.57,104.06C37.65,100.09 39.13,95.73 43.7,92.18C48.27,88.64 54.75,84.59 61.97,82.76C69.19,80.93 78.85,80.95 87,81.2C95.15,81.46 103.7,82.43 110.89,84.28C118.07,86.13 125.16,89.04 130.11,92.29C135.06,95.54 137.39,99.84 140.57,103.79C143.75,107.75 147.76,111.61 149.19,116Z" stroke-width="3.2"/>
      </g>
      <path fill="#A78BFA" d="M92.5,0L92.5,22L105,30L119,46L87,106L55,46L69,30L81.5,22L81.5,0Z"/>
      <circle cx="87" cy="116" r="10" fill="#5EEAD4"/>
    </g>
  </g>
</svg>
